<svg width="531" height="319" viewBox="0 0 531 319" fill="none" xmlns="http://www.w3.org/2000/svg">
<path d="M245.671 9.09999L29.0821 128.715C16.674 135.568 16.6874 153.408 29.1059 160.242L245.694 279.429C250.893 282.29 257.168 282.405 262.468 279.735L499.135 160.548C512.329 153.903 512.343 135.07 499.158 128.407L262.492 8.79202C257.179 6.10672 250.882 6.22201 245.671 9.09999Z" fill="#EDD49D" stroke="#D31E4A" stroke-width="13"/>
<circle cx="240.5" cy="35.5" r="7.5" fill="#D31E4A"/>
<circle cx="440.982" cy="119.811" r="7.5" transform="rotate(45.3973 440.982 119.811)" fill="#D31E4A"/>
<circle cx="477.606" cy="145.606" r="7.5" transform="rotate(45.3973 477.606 145.606)" fill="#D31E4A"/>
<circle cx="458.606" cy="160.606" r="7.5" transform="rotate(45.3973 458.606 160.606)" fill="#D31E4A"/>
<circle cx="435.606" cy="171.606" r="7.5" transform="rotate(45.3973 435.606 171.606)" fill="#D31E4A"/>
<circle cx="414.606" cy="181.606" r="7.5" transform="rotate(45.3973 414.606 181.606)" fill="#D31E4A"/>
<circle cx="393.606" cy="191.606" r="7.5" transform="rotate(45.3973 393.606 191.606)" fill="#D31E4A"/>
<circle cx="370.606" cy="202.606" r="7.5" transform="rotate(45.3973 370.606 202.606)" fill="#D31E4A"/>
<circle cx="349.606" cy="213.606" r="7.5" transform="rotate(45.3973 349.606 213.606)" fill="#D31E4A"/>
<circle cx="62.6063" cy="158.606" r="7.5" transform="rotate(45.3973 62.6063 158.606)" fill="#D31E4A"/>
<circle cx="85.6064" cy="170.606" r="7.5" transform="rotate(45.3973 85.6064 170.606)" fill="#D31E4A"/>
<circle cx="106.606" cy="182.606" r="7.5" transform="rotate(45.3973 106.606 182.606)" fill="#D31E4A"/>
<circle cx="128.606" cy="193.606" r="7.5" transform="rotate(45.3973 128.606 193.606)" fill="#D31E4A"/>
<circle cx="150.606" cy="204.606" r="7.5" transform="rotate(45.3973 150.606 204.606)" fill="#D31E4A"/>
<circle cx="171.606" cy="215.606" r="7.5" transform="rotate(45.3973 171.606 215.606)" fill="#D31E4A"/>
<circle cx="462.606" cy="130.606" r="7.5" transform="rotate(45.3973 462.606 130.606)" fill="#D31E4A"/>
<circle cx="196.5" cy="58.5" r="7.5" fill="#D31E4A"/>
<circle cx="396.472" cy="97.8134" r="7.5" transform="rotate(45.3973 396.472 97.8134)" fill="#D31E4A"/>
<circle cx="153.5" cy="81.5" r="7.5" fill="#D31E4A"/>
<circle cx="352.552" cy="76.6234" r="7.5" transform="rotate(45.3973 352.552 76.6234)" fill="#D31E4A"/>
<circle cx="109.5" cy="104.5" r="7.5" fill="#D31E4A"/>
<circle cx="308.043" cy="54.6255" r="7.5" transform="rotate(45.3973 308.043 54.6255)" fill="#D31E4A"/>
<circle cx="65.5" cy="128.5" r="7.5" fill="#D31E4A"/>
<circle cx="262.726" cy="33.2167" r="7.5" transform="rotate(45.3973 262.726 33.2167)" fill="#D31E4A"/>
<circle cx="218.5" cy="47.5" r="7.5" fill="#D31E4A"/>
<circle cx="418.323" cy="109.107" r="7.5" transform="rotate(45.3973 418.323 109.107)" fill="#D31E4A"/>
<circle cx="174.5" cy="70.5" r="7.5" fill="#D31E4A"/>
<circle cx="373.814" cy="87.109" r="7.5" transform="rotate(45.3973 373.814 87.109)" fill="#D31E4A"/>
<circle cx="131.5" cy="93.5" r="7.5" fill="#D31E4A"/>
<circle cx="329.894" cy="65.919" r="7.5" transform="rotate(45.3973 329.894 65.919)" fill="#D31E4A"/>
<circle cx="87.5" cy="116.5" r="7.5" fill="#D31E4A"/>
<circle cx="285.384" cy="43.9211" r="7.5" transform="rotate(45.3973 285.384 43.9211)" fill="#D31E4A"/>
<circle cx="47.5" cy="142.5" r="7.5" fill="#D31E4A"/>
<rect x="18" y="218" width="489" height="95" fill="#87BFBE" stroke="#375150" stroke-width="12"/>
<path d="M32 244.5H69V239.5H32V244.5ZM32 260H69V255H32V260ZM32 274.5H69V269.5H32V274.5ZM32 290H69V285H32V290ZM458.5 245H495.5V240H458.5V245ZM458.5 260.5H495.5V255.5H458.5V260.5ZM458.5 275H495.5V270H458.5V275ZM458.5 290.5H495.5V285.5H458.5V290.5Z" fill="#FDECBB"/>
</svg>
